<svg width="60" height="60" viewBox="0 0 60 60" fill="none" xmlns="http://www.w3.org/2000/svg">
<path d="M59.5 40L20.5 1H2L59.5 58.5V40Z" fill="#78D88D" stroke="#78D88D"/>
<path d="M28.7496 17.8074C28.2449 18.3121 27.7198 18.6458 27.1744 18.8086C26.6305 18.9728 26.1009 18.9841 25.5857 18.8425C25.0734 18.7008 24.6131 18.4259 24.2049 18.0176C23.7935 17.6063 23.5178 17.1437 23.3777 16.63C23.2376 16.1162 23.2497 15.5874 23.4139 15.0435C23.5781 14.4996 23.9118 13.9761 24.415 13.4729C24.9197 12.9681 25.444 12.6337 25.9879 12.4695C26.5318 12.3052 27.0599 12.2939 27.5721 12.4356C28.0859 12.5757 28.5484 12.8514 28.9597 13.2627C29.368 13.671 29.6422 14.132 29.7824 14.6458C29.9255 15.1595 29.9149 15.6883 29.7507 16.2322C29.588 16.7776 29.2543 17.3027 28.7496 17.8074ZM27.7575 16.8153C28.0844 16.4884 28.3111 16.1637 28.4377 15.8413C28.5658 15.5204 28.5997 15.2138 28.5394 14.9215C28.4791 14.6292 28.3307 14.3648 28.0942 14.1282C27.8576 13.8917 27.5932 13.7433 27.301 13.683C27.0087 13.6228 26.7013 13.6559 26.3789 13.7825C26.058 13.9105 25.7341 14.138 25.4071 14.465C25.0802 14.7919 24.8527 15.1158 24.7246 15.4367C24.5981 15.7592 24.5649 16.0665 24.6252 16.3588C24.6855 16.6511 24.8339 16.9155 25.0704 17.152C25.3069 17.3886 25.5714 17.537 25.8636 17.5972C26.1559 17.6575 26.4625 17.6236 26.7834 17.4955C27.1058 17.369 27.4305 17.1422 27.7575 16.8153ZM35.6599 20.0894L31.0315 24.7177L30.1863 23.8725L31.0858 18.9458L31.0519 18.9119L28.1388 21.825L27.1603 20.8464L31.7886 16.2181L32.6474 17.0769L31.7344 21.9855L31.775 22.0261L34.6858 19.1153L35.6599 20.0894ZM31.84 25.5262L36.4684 20.8979L37.4469 21.8764L33.6254 25.6979L35.6096 27.6822L34.8028 28.489L31.84 25.5262ZM41.0577 25.4872L36.4294 30.1155L35.4508 29.137L40.0792 24.5087L41.0577 25.4872ZM45.7341 30.1636L41.1057 34.7919L40.2605 33.9467L41.16 29.02L41.1261 28.9861L38.213 31.8992L37.2345 30.9206L41.8628 26.2923L42.7216 27.1511L41.8086 32.0597L41.8492 32.1003L44.76 29.1895L45.7341 30.1636ZM41.9142 35.6004L46.5426 30.9721L49.6613 34.0908L48.8545 34.8976L46.7143 32.7574L45.6115 33.8602L47.5912 35.8399L46.7844 36.6467L44.8047 34.667L43.6996 35.7721L45.8488 37.9213L45.042 38.7281L41.9142 35.6004Z" fill="white"/>
</svg>
