<svg width="72" height="64" viewBox="0 0 72 64" fill="none" xmlns="http://www.w3.org/2000/svg">
<circle cx="32" cy="32" r="30" fill="#323232" stroke="#00CC2D" stroke-width="4"/>
<path d="M57 3.23607L59.4167 10.6738L59.6412 11.3647H60.3677H68.1882L61.8613 15.9615L61.2735 16.3885L61.498 17.0795L63.9147 24.5172L57.5878 19.9205L57 19.4934L56.4122 19.9205L50.0853 24.5172L52.502 17.0795L52.7265 16.3885L52.1387 15.9615L45.8118 11.3647H53.6323H54.3588L54.5833 10.6738L57 3.23607Z" fill="#FF5F05" stroke="#323232" stroke-width="2"/>
<rect x="16" y="40" width="28" height="2" fill="#969696"/>
<rect x="16" y="46" width="22" height="2" fill="#969696"/>
<rect x="16" y="16" width="26" height="2" fill="#969696"/>
<rect x="16" y="22" width="32" height="2" fill="#969696"/>
<rect x="16" y="28" width="32" height="2" fill="#969696"/>
<rect x="16" y="34" width="32" height="2" fill="#969696"/>
<rect x="43" y="49" width="17" height="10" fill="#969696"/>
<rect x="48" y="42" width="7" height="11" rx="3.5" stroke="#969696" stroke-width="4"/>
<line x1="47" y1="52.5" x2="56" y2="52.5" stroke="white" stroke-opacity="0.77"/>
<line x1="47" y1="55.5" x2="56" y2="55.5" stroke="white" stroke-opacity="0.77"/>
</svg>
