<svg width="72" height="64" viewBox="0 0 72 64" fill="none" xmlns="http://www.w3.org/2000/svg">
<circle cx="32" cy="32" r="30" fill="white" stroke="#00CC2D" stroke-width="4"/>
<rect x="43" y="49" width="17" height="10" fill="black"/>
<rect x="48" y="42" width="7" height="11" rx="3.5" stroke="black" stroke-width="4"/>
<line x1="47" y1="52.5" x2="56" y2="52.5" stroke="white" stroke-opacity="0.77"/>
<line x1="47" y1="55.5" x2="56" y2="55.5" stroke="white" stroke-opacity="0.77"/>
<path d="M35.9551 24.9805L32.668 44H27.7109L31.0156 24.9805H35.9551ZM31.5605 20.1113C31.5371 19.3145 31.7949 18.6758 32.334 18.1953C32.8848 17.7148 33.5469 17.4688 34.3203 17.457C35.0586 17.4453 35.7031 17.668 36.2539 18.125C36.8047 18.5703 37.0801 19.1738 37.0801 19.9355C37.1035 20.7324 36.8398 21.3711 36.2891 21.8516C35.7383 22.332 35.082 22.5781 34.3203 22.5898C33.582 22.6016 32.9375 22.3848 32.3867 21.9395C31.8477 21.4941 31.5723 20.8848 31.5605 20.1113Z" fill="#00CC2D"/>
<path d="M57 3.23607L59.4167 10.6738L59.6412 11.3647H60.3677H68.1882L61.8613 15.9615L61.2735 16.3885L61.498 17.0795L63.9147 24.5172L57.5878 19.9205L57 19.4934L56.4122 19.9205L50.0853 24.5172L52.502 17.0795L52.7265 16.3885L52.1387 15.9615L45.8118 11.3647H53.6323H54.3588L54.5833 10.6738L57 3.23607Z" fill="#FF5F05" stroke="white" stroke-width="2"/>
</svg>
