<svg width="64" height="71" viewBox="0 0 64 71" fill="none" xmlns="http://www.w3.org/2000/svg">
<circle cx="32" cy="32" r="30" fill="#323232" stroke="#00CC2D" stroke-width="4"/>
<rect x="19" y="14" width="19" height="2" fill="#969696"/>
<rect x="19" y="20" width="26" height="2" fill="#969696"/>
<path d="M33.875 29.9375L33.4883 41.7852H30.6758L30.2773 29.9375H33.875ZM30.1836 45.4531C30.1836 44.9531 30.3555 44.5391 30.6992 44.2109C31.0508 43.875 31.5117 43.707 32.082 43.707C32.6602 43.707 33.1211 43.875 33.4648 44.2109C33.8086 44.5391 33.9805 44.9531 33.9805 45.4531C33.9805 45.9375 33.8086 46.3477 33.4648 46.6836C33.1211 47.0195 32.6602 47.1875 32.082 47.1875C31.5117 47.1875 31.0508 47.0195 30.6992 46.6836C30.3555 46.3477 30.1836 45.9375 30.1836 45.4531Z" fill="#00CC2D"/>
</svg>
