<svg width="262" height="40" viewBox="0 0 262 40" fill="none" xmlns="http://www.w3.org/2000/svg">
<path d="M11.6719 18.5195H4.36719L4.32812 14.4961H10.4609C11.5417 14.4961 12.4271 14.3594 13.1172 14.0859C13.8073 13.7995 14.3216 13.3893 14.6602 12.8555C15.0117 12.3086 15.1875 11.6445 15.1875 10.8633C15.1875 9.97786 15.0182 9.26172 14.6797 8.71484C14.3542 8.16797 13.8398 7.77083 13.1367 7.52344C12.4466 7.27604 11.5547 7.15234 10.4609 7.15234H6.39844V31H0.539062V2.5625H10.4609C12.1146 2.5625 13.5924 2.71875 14.8945 3.03125C16.2096 3.34375 17.3229 3.81901 18.2344 4.45703C19.1458 5.09505 19.8424 5.90234 20.3242 6.87891C20.806 7.84245 21.0469 8.98828 21.0469 10.3164C21.0469 11.4883 20.7799 12.569 20.2461 13.5586C19.7253 14.5482 18.8984 15.3555 17.7656 15.9805C16.6458 16.6055 15.181 16.9505 13.3711 17.0156L11.6719 18.5195ZM11.418 31H2.76562L5.05078 26.4297H11.418C12.4466 26.4297 13.2865 26.2669 13.9375 25.9414C14.5885 25.6029 15.0703 25.1471 15.3828 24.5742C15.6953 24.0013 15.8516 23.3438 15.8516 22.6016C15.8516 21.7682 15.7083 21.0456 15.4219 20.4336C15.1484 19.8216 14.7057 19.3529 14.0938 19.0273C13.4818 18.6888 12.6745 18.5195 11.6719 18.5195H6.02734L6.06641 14.4961H13.0977L14.4453 16.0781C16.1771 16.0521 17.5703 16.3581 18.625 16.9961C19.6927 17.6211 20.4674 18.4349 20.9492 19.4375C21.444 20.4401 21.6914 21.5143 21.6914 22.6602C21.6914 24.4831 21.2943 26.0195 20.5 27.2695C19.7057 28.5065 18.5404 29.4375 17.0039 30.0625C15.4805 30.6875 13.6185 31 11.418 31ZM35.4609 31.3906C33.8203 31.3906 32.349 31.1302 31.0469 30.6094C29.7448 30.0755 28.638 29.3398 27.7266 28.4023C26.8281 27.4648 26.138 26.3776 25.6562 25.1406C25.1745 23.8906 24.9336 22.5625 24.9336 21.1562V20.375C24.9336 18.7734 25.1615 17.3086 25.6172 15.9805C26.0729 14.6523 26.724 13.5 27.5703 12.5234C28.4297 11.5469 29.4714 10.7982 30.6953 10.2773C31.9193 9.74349 33.2995 9.47656 34.8359 9.47656C36.3333 9.47656 37.6615 9.72396 38.8203 10.2188C39.9792 10.7135 40.9492 11.4167 41.7305 12.3281C42.5247 13.2396 43.1237 14.3333 43.5273 15.6094C43.931 16.8724 44.1328 18.2786 44.1328 19.8281V22.1719H27.3359V18.4219H38.6055V17.9922C38.6055 17.2109 38.4622 16.5143 38.1758 15.9023C37.9023 15.2773 37.4857 14.7826 36.9258 14.418C36.3659 14.0534 35.6497 13.8711 34.7773 13.8711C34.0352 13.8711 33.3971 14.0339 32.8633 14.3594C32.3294 14.6849 31.8932 15.1406 31.5547 15.7266C31.2292 16.3125 30.9818 17.0026 30.8125 17.7969C30.6562 18.5781 30.5781 19.4375 30.5781 20.375V21.1562C30.5781 22.0026 30.6953 22.7839 30.9297 23.5C31.1771 24.2161 31.5221 24.8346 31.9648 25.3555C32.4206 25.8763 32.9674 26.2799 33.6055 26.5664C34.2565 26.8529 34.9922 26.9961 35.8125 26.9961C36.8281 26.9961 37.7721 26.8008 38.6445 26.4102C39.5299 26.0065 40.2917 25.401 40.9297 24.5938L43.6641 27.5625C43.2214 28.2005 42.6159 28.8125 41.8477 29.3984C41.0924 29.9844 40.181 30.4661 39.1133 30.8438C38.0456 31.2083 36.8281 31.3906 35.4609 31.3906ZM58.7422 26.2344V16.8203C58.7422 16.1432 58.6315 15.5638 58.4102 15.082C58.1888 14.5872 57.8438 14.2031 57.375 13.9297C56.9193 13.6562 56.3268 13.5195 55.5977 13.5195C54.9727 13.5195 54.4323 13.6302 53.9766 13.8516C53.5208 14.0599 53.1693 14.3659 52.9219 14.7695C52.6745 15.1602 52.5508 15.6224 52.5508 16.1562H46.9258C46.9258 15.2578 47.1341 14.4049 47.5508 13.5977C47.9674 12.7904 48.5729 12.0807 49.3672 11.4688C50.1615 10.8438 51.1055 10.3555 52.1992 10.0039C53.306 9.65234 54.543 9.47656 55.9102 9.47656C57.5508 9.47656 59.0091 9.75 60.2852 10.2969C61.5612 10.8438 62.5638 11.6641 63.293 12.7578C64.0352 13.8516 64.4062 15.2188 64.4062 16.8594V25.9023C64.4062 27.0612 64.4779 28.0117 64.6211 28.7539C64.7643 29.4831 64.9727 30.1211 65.2461 30.668V31H59.5625C59.2891 30.4271 59.0807 29.7109 58.9375 28.8516C58.8073 27.9792 58.7422 27.1068 58.7422 26.2344ZM59.4844 18.1289L59.5234 21.3125H56.3789C55.6367 21.3125 54.9922 21.3971 54.4453 21.5664C53.8984 21.7357 53.4492 21.9766 53.0977 22.2891C52.7461 22.5885 52.4857 22.9401 52.3164 23.3438C52.1602 23.7474 52.082 24.1901 52.082 24.6719C52.082 25.1536 52.1927 25.5898 52.4141 25.9805C52.6354 26.3581 52.9544 26.6576 53.3711 26.8789C53.7878 27.0872 54.276 27.1914 54.8359 27.1914C55.6823 27.1914 56.418 27.0221 57.043 26.6836C57.668 26.3451 58.1497 25.9284 58.4883 25.4336C58.8398 24.9388 59.0221 24.4701 59.0352 24.0273L60.5195 26.4102C60.3112 26.944 60.0247 27.4974 59.6602 28.0703C59.3086 28.6432 58.8594 29.1836 58.3125 29.6914C57.7656 30.1862 57.1081 30.5964 56.3398 30.9219C55.5716 31.2344 54.6602 31.3906 53.6055 31.3906C52.2643 31.3906 51.0469 31.1237 49.9531 30.5898C48.8724 30.043 48.013 29.2943 47.375 28.3438C46.75 27.3802 46.4375 26.2865 46.4375 25.0625C46.4375 23.9557 46.6458 22.9727 47.0625 22.1133C47.4792 21.2539 48.0911 20.5312 48.8984 19.9453C49.7188 19.3464 50.7409 18.8971 51.9648 18.5977C53.1888 18.2852 54.6081 18.1289 56.2227 18.1289H59.4844ZM81.2422 25.9414V9.86719H86.8672V31H81.5742L81.2422 25.9414ZM81.8672 21.6055L83.5273 21.5664C83.5273 22.9727 83.3646 24.2812 83.0391 25.4922C82.7135 26.6901 82.2253 27.7318 81.5742 28.6172C80.9232 29.4896 80.1029 30.1732 79.1133 30.668C78.1237 31.1497 76.9583 31.3906 75.6172 31.3906C74.5885 31.3906 73.638 31.2474 72.7656 30.9609C71.9062 30.6615 71.1641 30.1992 70.5391 29.5742C69.9271 28.9362 69.4453 28.1224 69.0938 27.1328C68.7552 26.1302 68.5859 24.9258 68.5859 23.5195V9.86719H74.2109V23.5586C74.2109 24.1836 74.2826 24.7109 74.4258 25.1406C74.582 25.5703 74.7969 25.9219 75.0703 26.1953C75.3438 26.4688 75.6628 26.6641 76.0273 26.7812C76.4049 26.8984 76.8216 26.957 77.2773 26.957C78.4362 26.957 79.3477 26.7227 80.0117 26.2539C80.6888 25.7852 81.1641 25.1471 81.4375 24.3398C81.724 23.5195 81.8672 22.6081 81.8672 21.6055ZM101.516 9.86719V13.8516H89.2109V9.86719H101.516ZM92.2578 4.65234H97.8828V24.6328C97.8828 25.2448 97.9609 25.7135 98.1172 26.0391C98.2865 26.3646 98.5339 26.5924 98.8594 26.7227C99.1849 26.8398 99.5951 26.8984 100.09 26.8984C100.441 26.8984 100.754 26.8854 101.027 26.8594C101.314 26.8203 101.555 26.7812 101.75 26.7422L101.77 30.8828C101.288 31.0391 100.767 31.1628 100.207 31.2539C99.6471 31.3451 99.0286 31.3906 98.3516 31.3906C97.1146 31.3906 96.0339 31.1888 95.1094 30.7852C94.1979 30.3685 93.4948 29.7044 93 28.793C92.5052 27.8815 92.2578 26.6836 92.2578 25.1992V4.65234ZM110.656 9.86719V31H105.012V9.86719H110.656ZM104.66 4.35938C104.66 3.53906 104.947 2.86198 105.52 2.32812C106.092 1.79427 106.861 1.52734 107.824 1.52734C108.775 1.52734 109.536 1.79427 110.109 2.32812C110.695 2.86198 110.988 3.53906 110.988 4.35938C110.988 5.17969 110.695 5.85677 110.109 6.39062C109.536 6.92448 108.775 7.19141 107.824 7.19141C106.861 7.19141 106.092 6.92448 105.52 6.39062C104.947 5.85677 104.66 5.17969 104.66 4.35938ZM122.473 31H116.809V7.99219C116.809 6.39062 117.121 5.04297 117.746 3.94922C118.384 2.84245 119.276 2.00911 120.422 1.44922C121.581 0.876302 122.954 0.589844 124.543 0.589844C125.064 0.589844 125.565 0.628906 126.047 0.707031C126.529 0.772135 126.997 0.856771 127.453 0.960938L127.395 5.19922C127.147 5.13411 126.887 5.08854 126.613 5.0625C126.34 5.03646 126.021 5.02344 125.656 5.02344C124.979 5.02344 124.4 5.14062 123.918 5.375C123.449 5.59635 123.091 5.92839 122.844 6.37109C122.596 6.8138 122.473 7.35417 122.473 7.99219V31ZM126.691 9.86719V13.8516H113.664V9.86719H126.691ZM142.141 25.9414V9.86719H147.766V31H142.473L142.141 25.9414ZM142.766 21.6055L144.426 21.5664C144.426 22.9727 144.263 24.2812 143.938 25.4922C143.612 26.6901 143.124 27.7318 142.473 28.6172C141.822 29.4896 141.001 30.1732 140.012 30.668C139.022 31.1497 137.857 31.3906 136.516 31.3906C135.487 31.3906 134.536 31.2474 133.664 30.9609C132.805 30.6615 132.062 30.1992 131.438 29.5742C130.826 28.9362 130.344 28.1224 129.992 27.1328C129.654 26.1302 129.484 24.9258 129.484 23.5195V9.86719H135.109V23.5586C135.109 24.1836 135.181 24.7109 135.324 25.1406C135.48 25.5703 135.695 25.9219 135.969 26.1953C136.242 26.4688 136.561 26.6641 136.926 26.7812C137.303 26.8984 137.72 26.957 138.176 26.957C139.335 26.957 140.246 26.7227 140.91 26.2539C141.587 25.7852 142.062 25.1471 142.336 24.3398C142.622 23.5195 142.766 22.6081 142.766 21.6055ZM158 1V31H152.355V1H158ZM186.145 25.6094C186.145 25.0365 186.001 24.4701 185.715 23.9102C185.428 23.3503 184.875 22.8359 184.055 22.3672C183.247 21.8984 182.056 21.5013 180.48 21.1758C179.309 20.9154 178.26 20.6224 177.336 20.2969C176.424 19.9714 175.656 19.5807 175.031 19.125C174.406 18.6693 173.931 18.1224 173.605 17.4844C173.28 16.8464 173.117 16.0911 173.117 15.2188C173.117 14.4375 173.286 13.7018 173.625 13.0117C173.977 12.3086 174.471 11.6966 175.109 11.1758C175.76 10.6419 176.542 10.2253 177.453 9.92578C178.378 9.6263 179.413 9.47656 180.559 9.47656C182.186 9.47656 183.579 9.75651 184.738 10.3164C185.91 10.8633 186.802 11.612 187.414 12.5625C188.039 13.513 188.352 14.5872 188.352 15.7852H186.027C186.027 15.056 185.812 14.3659 185.383 13.7148C184.966 13.0638 184.348 12.5299 183.527 12.1133C182.72 11.6966 181.73 11.4883 180.559 11.4883C179.348 11.4883 178.365 11.6706 177.609 12.0352C176.854 12.3997 176.301 12.862 175.949 13.4219C175.611 13.9818 175.441 14.5612 175.441 15.1602C175.441 15.6289 175.513 16.0586 175.656 16.4492C175.812 16.8268 176.086 17.1784 176.477 17.5039C176.88 17.8294 177.453 18.1354 178.195 18.4219C178.938 18.7083 179.901 18.9883 181.086 19.2617C182.792 19.6393 184.185 20.1016 185.266 20.6484C186.359 21.1823 187.167 21.8464 187.688 22.6406C188.208 23.4219 188.469 24.3724 188.469 25.4922C188.469 26.3646 188.286 27.1654 187.922 27.8945C187.557 28.6107 187.03 29.2292 186.34 29.75C185.663 30.2708 184.842 30.6745 183.879 30.9609C182.928 31.2474 181.861 31.3906 180.676 31.3906C178.892 31.3906 177.382 31.0977 176.145 30.5117C174.921 29.9128 173.99 29.1315 173.352 28.168C172.727 27.1914 172.414 26.1562 172.414 25.0625H174.738C174.816 26.1562 175.161 27.0221 175.773 27.6602C176.385 28.2852 177.134 28.7279 178.02 28.9883C178.918 29.2487 179.803 29.3789 180.676 29.3789C181.874 29.3789 182.876 29.2031 183.684 28.8516C184.491 28.5 185.103 28.0378 185.52 27.4648C185.936 26.8919 186.145 26.2734 186.145 25.6094ZM201.75 9.86719V11.7812H191.164V9.86719H201.75ZM195.051 4.4375H197.375V25.8633C197.375 26.8398 197.505 27.5755 197.766 28.0703C198.026 28.5651 198.365 28.8971 198.781 29.0664C199.198 29.2357 199.647 29.3203 200.129 29.3203C200.48 29.3203 200.819 29.3008 201.145 29.2617C201.47 29.2096 201.763 29.1576 202.023 29.1055L202.121 31.0781C201.835 31.1693 201.464 31.2409 201.008 31.293C200.552 31.3581 200.096 31.3906 199.641 31.3906C198.742 31.3906 197.948 31.2279 197.258 30.9023C196.568 30.5638 196.027 29.9909 195.637 29.1836C195.246 28.3633 195.051 27.25 195.051 25.8438V4.4375ZM212.922 28.8906L219.504 9.86719H222.023L213.078 34.3984C212.896 34.8802 212.661 35.4141 212.375 36C212.102 36.5859 211.737 37.1458 211.281 37.6797C210.839 38.2266 210.279 38.6693 209.602 39.0078C208.938 39.3594 208.124 39.5352 207.16 39.5352C206.913 39.5352 206.594 39.5026 206.203 39.4375C205.826 39.3854 205.552 39.3333 205.383 39.2812L205.363 37.3086C205.507 37.3477 205.715 37.3802 205.988 37.4062C206.262 37.4323 206.451 37.4453 206.555 37.4453C207.401 37.4453 208.111 37.3021 208.684 37.0156C209.27 36.7292 209.758 36.2995 210.148 35.7266C210.539 35.1667 210.884 34.4635 211.184 33.6172L212.922 28.8906ZM206.77 9.86719L213.508 28.0117L214.133 30.4531L212.434 31.4102L204.23 9.86719H206.77ZM228.273 1V31H225.949V1H228.273ZM242.824 31.3906C241.444 31.3906 240.174 31.1367 239.016 30.6289C237.87 30.1211 236.867 29.4049 236.008 28.4805C235.161 27.556 234.504 26.4622 234.035 25.1992C233.579 23.9232 233.352 22.5299 233.352 21.0195V20.1797C233.352 18.5521 233.592 17.0807 234.074 15.7656C234.556 14.4505 235.22 13.3242 236.066 12.3867C236.913 11.4492 237.876 10.7331 238.957 10.2383C240.051 9.73047 241.197 9.47656 242.395 9.47656C243.736 9.47656 244.927 9.71745 245.969 10.1992C247.01 10.668 247.883 11.3385 248.586 12.2109C249.302 13.0703 249.842 14.0924 250.207 15.2773C250.572 16.4492 250.754 17.7448 250.754 19.1641V20.5898H234.758V18.5977H248.43V18.3242C248.404 17.1393 248.163 16.0326 247.707 15.0039C247.264 13.9622 246.6 13.1159 245.715 12.4648C244.829 11.8138 243.723 11.4883 242.395 11.4883C241.405 11.4883 240.493 11.6966 239.66 12.1133C238.84 12.5299 238.13 13.1289 237.531 13.9102C236.945 14.6784 236.49 15.5964 236.164 16.6641C235.852 17.7188 235.695 18.8906 235.695 20.1797V21.0195C235.695 22.1914 235.865 23.2852 236.203 24.3008C236.555 25.3034 237.049 26.1888 237.688 26.957C238.339 27.7253 239.107 28.3242 239.992 28.7539C240.878 29.1836 241.854 29.3984 242.922 29.3984C244.172 29.3984 245.279 29.1706 246.242 28.7148C247.206 28.2461 248.072 27.5104 248.84 26.5078L250.305 27.6406C249.849 28.3177 249.276 28.9427 248.586 29.5156C247.909 30.0885 247.095 30.5443 246.145 30.8828C245.194 31.2214 244.087 31.3906 242.824 31.3906Z" fill="#E7E7E7"/>
<path d="M254.758 28.2852C254.758 27.4518 255.044 26.7552 255.617 26.1953C256.203 25.6354 256.978 25.3555 257.941 25.3555C258.905 25.3555 259.673 25.6354 260.246 26.1953C260.832 26.7552 261.125 27.4518 261.125 28.2852C261.125 29.1185 260.832 29.8151 260.246 30.375C259.673 30.9349 258.905 31.2148 257.941 31.2148C256.978 31.2148 256.203 30.9349 255.617 30.375C255.044 29.8151 254.758 29.1185 254.758 28.2852Z" fill="#00CC2D"/>
</svg>
