<svg width="100" height="100" viewBox="0 0 100 100" fill="none" xmlns="http://www.w3.org/2000/svg">
<rect width="100" height="100" fill="#78D88D"/>
<path d="M72.3139 77.3295C50.5206 85.5391 33.5401 81.2026 26.4737 77.3546C25.6278 76.894 25.0344 76.0818 24.8089 75.1454C21.2059 60.1877 30.4256 53.4547 36.9726 51.4575C38.1283 51.1049 39.3499 51.4772 40.3277 52.1871C48.0818 57.8167 55.0867 55.39 58.8734 52.5195C59.9989 51.6662 61.4279 51.1538 62.7733 51.5835C74.7373 55.4038 75.8357 67.376 74.6127 74.6228C74.4015 75.8742 73.5015 76.8821 72.3139 77.3295Z" fill="white" stroke="white"/>
<path fill-rule="evenodd" clip-rule="evenodd" d="M50.0983 50.8653C54.3175 50.8574 62.1919 47.5118 63.3333 33.8148C64.5185 19.5926 54.6914 16.5309 49.6296 16.7778V16.7781C44.4561 16.7383 35.245 20.0333 36.3946 33.8282C37.5798 48.0505 46.0242 51.1122 50.0983 50.8653Z" fill="white"/>
</svg>
